<?xml version="1.0" encoding="UTF-8" standalone="no"?>
<!DOCTYPE svg PUBLIC "-//W3C//DTD SVG 1.1//EN"
 "http://www.w3.org/Graphics/SVG/1.1/DTD/svg11.dtd">
<!-- Generated by graphviz version 2.38.0 (20140413.2041)
 -->
<!-- Title: G Pages: 1 -->
<svg width="2561pt" height="371pt"
 viewBox="0.00 0.00 2561.23 370.91" xmlns="http://www.w3.org/2000/svg" xmlns:xlink="http://www.w3.org/1999/xlink">
<g id="graph0" class="graph" transform="scale(1 1) rotate(0) translate(4 366.912)">
<title>G</title>
<polygon fill="white" stroke="none" points="-4,4 -4,-366.912 2557.23,-366.912 2557.23,4 -4,4"/>
<!-- relu5 -->
<g id="node1" class="node"><title>relu5</title>
<ellipse fill="none" stroke="black" cx="1304.13" cy="-181.456" rx="37.3201" ry="25.4118"/>
<text text-anchor="middle" x="1304.13" y="-184.256" font-family="Times,serif" font-size="14.00">relu5:</text>
<text text-anchor="middle" x="1304.13" y="-170.256" font-family="Times,serif" font-size="14.00">RELU</text>
</g>
<!-- conv5 -->
<g id="node2" class="node"><title>conv5</title>
<ellipse fill="none" stroke="black" cx="1506.84" cy="-181.456" rx="83.2021" ry="25.4118"/>
<text text-anchor="middle" x="1506.84" y="-184.256" font-family="Times,serif" font-size="14.00">conv5:</text>
<text text-anchor="middle" x="1506.84" y="-170.256" font-family="Times,serif" font-size="14.00">CONVOLUTION</text>
</g>
<!-- relu5&#45;&gt;conv5 -->
<g id="edge1" class="edge"><title>relu5&#45;&gt;conv5</title>
<path fill="none" stroke="black" d="M1340.55,-176.164C1361.61,-175.045 1389.35,-174.57 1416.07,-174.739"/>
<polygon fill="black" stroke="black" points="1416.22,-178.241 1426.25,-174.836 1416.28,-171.241 1416.22,-178.241"/>
</g>
<!-- conv5&#45;&gt;relu5 -->
<g id="edge14" class="edge"><title>conv5&#45;&gt;relu5</title>
<path fill="none" stroke="black" d="M1426.25,-188.076C1400.6,-188.401 1373.07,-188.116 1350.74,-187.219"/>
<polygon fill="black" stroke="black" points="1350.7,-183.714 1340.55,-186.747 1350.38,-190.706 1350.7,-183.714"/>
</g>
<!-- conv5&#45;&gt;conv5 -->
<g id="edge30" class="edge"><title>conv5&#45;&gt;conv5</title>
<path fill="none" stroke="black" d="M1474.72,-205.146C1471.66,-215.745 1482.37,-224.912 1506.84,-224.912 1522.89,-224.912 1533.02,-220.964 1537.23,-215.255"/>
<polygon fill="black" stroke="black" points="1540.72,-215.593 1538.95,-205.146 1533.82,-214.415 1540.72,-215.593"/>
</g>
<!-- pool5 -->
<g id="node5" class="node"><title>pool5</title>
<ellipse fill="none" stroke="black" cx="1680.95" cy="-181.456" rx="54.5197" ry="25.4118"/>
<text text-anchor="middle" x="1680.95" y="-184.256" font-family="Times,serif" font-size="14.00">pool5:</text>
<text text-anchor="middle" x="1680.95" y="-170.256" font-family="Times,serif" font-size="14.00">POOLING</text>
</g>
<!-- conv5&#45;&gt;pool5 -->
<g id="edge3" class="edge"><title>conv5&#45;&gt;pool5</title>
<path fill="none" stroke="black" d="M1590.36,-181.456C1598.95,-181.456 1607.58,-181.456 1615.92,-181.456"/>
<polygon fill="black" stroke="black" points="1615.92,-184.956 1625.92,-181.456 1615.92,-177.956 1615.92,-184.956"/>
</g>
<!-- conv4 -->
<g id="node3" class="node"><title>conv4</title>
<ellipse fill="none" stroke="black" cx="1304.13" cy="-94.4558" rx="83.2021" ry="25.4118"/>
<text text-anchor="middle" x="1304.13" y="-97.2558" font-family="Times,serif" font-size="14.00">conv4:</text>
<text text-anchor="middle" x="1304.13" y="-83.2558" font-family="Times,serif" font-size="14.00">CONVOLUTION</text>
</g>
<!-- conv4&#45;&gt;conv5 -->
<g id="edge27" class="edge"><title>conv4&#45;&gt;conv5</title>
<path fill="none" stroke="black" d="M1352.95,-115.184C1381.74,-127.664 1418.57,-143.627 1448.86,-156.758"/>
<polygon fill="black" stroke="black" points="1447.47,-159.97 1458.04,-160.736 1450.25,-153.547 1447.47,-159.97"/>
</g>
<!-- conv4&#45;&gt;conv4 -->
<g id="edge8" class="edge"><title>conv4&#45;&gt;conv4</title>
<path fill="none" stroke="black" d="M1267.01,-117.704C1262.96,-128.489 1275.33,-137.912 1304.13,-137.912 1323.03,-137.912 1334.86,-133.854 1339.61,-128.016"/>
<polygon fill="black" stroke="black" points="1343.14,-128.131 1341.26,-117.704 1336.23,-127.027 1343.14,-128.131"/>
</g>
<!-- relu4 -->
<g id="node22" class="node"><title>relu4</title>
<ellipse fill="none" stroke="black" cx="1506.84" cy="-94.4558" rx="37.3201" ry="25.4118"/>
<text text-anchor="middle" x="1506.84" y="-97.2558" font-family="Times,serif" font-size="14.00">relu4:</text>
<text text-anchor="middle" x="1506.84" y="-83.2558" font-family="Times,serif" font-size="14.00">RELU</text>
</g>
<!-- conv4&#45;&gt;relu4 -->
<g id="edge33" class="edge"><title>conv4&#45;&gt;relu4</title>
<path fill="none" stroke="black" d="M1384.75,-87.8356C1410.35,-87.511 1437.84,-87.7954 1460.14,-88.6889"/>
<polygon fill="black" stroke="black" points="1460.17,-92.1938 1470.32,-89.1592 1460.49,-85.2013 1460.17,-92.1938"/>
</g>
<!-- pool2 -->
<g id="node4" class="node"><title>pool2</title>
<ellipse fill="none" stroke="black" cx="811.502" cy="-25.4558" rx="54.5197" ry="25.4118"/>
<text text-anchor="middle" x="811.502" y="-28.2558" font-family="Times,serif" font-size="14.00">pool2:</text>
<text text-anchor="middle" x="811.502" y="-14.2558" font-family="Times,serif" font-size="14.00">POOLING</text>
</g>
<!-- pool2&#45;&gt;pool2 -->
<g id="edge2" class="edge"><title>pool2&#45;&gt;pool2</title>
<path fill="none" stroke="black" d="M787.609,-48.7041C785.002,-59.4888 792.967,-68.9117 811.502,-68.9117 823.666,-68.9117 831.277,-64.8536 834.335,-59.0156"/>
<polygon fill="black" stroke="black" points="837.854,-59.0094 835.395,-48.7041 830.891,-58.294 837.854,-59.0094"/>
</g>
<!-- norm2 -->
<g id="node6" class="node"><title>norm2</title>
<ellipse fill="none" stroke="black" cx="942.171" cy="-25.4558" rx="39.8204" ry="25.4118"/>
<text text-anchor="middle" x="942.171" y="-28.2558" font-family="Times,serif" font-size="14.00">norm2:</text>
<text text-anchor="middle" x="942.171" y="-14.2558" font-family="Times,serif" font-size="14.00">LRN</text>
</g>
<!-- pool2&#45;&gt;norm2 -->
<g id="edge35" class="edge"><title>pool2&#45;&gt;norm2</title>
<path fill="none" stroke="black" d="M866.324,-25.4558C874.843,-25.4558 883.614,-25.4558 892.019,-25.4558"/>
<polygon fill="black" stroke="black" points="892.048,-28.9559 902.048,-25.4558 892.048,-21.9559 892.048,-28.9559"/>
</g>
<!-- pool5&#45;&gt;pool5 -->
<g id="edge19" class="edge"><title>pool5&#45;&gt;pool5</title>
<path fill="none" stroke="black" d="M1649.88,-202.471C1644.08,-214.154 1654.44,-224.912 1680.95,-224.912 1699.17,-224.912 1709.76,-219.827 1712.71,-212.853"/>
<polygon fill="black" stroke="black" points="1716.18,-212.212 1712.01,-202.471 1709.19,-212.685 1716.18,-212.212"/>
</g>
<!-- fc6 -->
<g id="node9" class="node"><title>fc6</title>
<ellipse fill="none" stroke="black" cx="1864.42" cy="-181.456" rx="92.9282" ry="25.4118"/>
<text text-anchor="middle" x="1864.42" y="-184.256" font-family="Times,serif" font-size="14.00">fc6:</text>
<text text-anchor="middle" x="1864.42" y="-170.256" font-family="Times,serif" font-size="14.00">INNER_PRODUCT</text>
</g>
<!-- pool5&#45;&gt;fc6 -->
<g id="edge5" class="edge"><title>pool5&#45;&gt;fc6</title>
<path fill="none" stroke="black" d="M1735.9,-181.456C1744.1,-181.456 1752.78,-181.456 1761.6,-181.456"/>
<polygon fill="black" stroke="black" points="1761.61,-184.956 1771.61,-181.456 1761.61,-177.956 1761.61,-184.956"/>
</g>
<!-- norm2&#45;&gt;norm2 -->
<g id="edge25" class="edge"><title>norm2&#45;&gt;norm2</title>
<path fill="none" stroke="black" d="M918.963,-46.4714C914.63,-58.1538 922.367,-68.9117 942.171,-68.9117 955.787,-68.9117 963.698,-63.8269 965.906,-56.8527"/>
<polygon fill="black" stroke="black" points="969.381,-56.2816 965.38,-46.4714 962.39,-56.6357 969.381,-56.2816"/>
</g>
<!-- conv3 -->
<g id="node7" class="node"><title>conv3</title>
<ellipse fill="none" stroke="black" cx="1101.43" cy="-25.4558" rx="83.2021" ry="25.4118"/>
<text text-anchor="middle" x="1101.43" y="-28.2558" font-family="Times,serif" font-size="14.00">conv3:</text>
<text text-anchor="middle" x="1101.43" y="-14.2558" font-family="Times,serif" font-size="14.00">CONVOLUTION</text>
</g>
<!-- norm2&#45;&gt;conv3 -->
<g id="edge4" class="edge"><title>norm2&#45;&gt;conv3</title>
<path fill="none" stroke="black" d="M982.449,-25.4558C990.381,-25.4558 999.033,-25.4558 1007.93,-25.4558"/>
<polygon fill="black" stroke="black" points="1008.05,-28.9559 1018.05,-25.4558 1008.05,-21.9559 1008.05,-28.9559"/>
</g>
<!-- conv3&#45;&gt;conv4 -->
<g id="edge40" class="edge"><title>conv3&#45;&gt;conv4</title>
<path fill="none" stroke="black" d="M1157.54,-44.4017C1182.55,-52.9982 1212.29,-63.2242 1238.36,-72.1857"/>
<polygon fill="black" stroke="black" points="1237.55,-75.6109 1248.15,-75.5523 1239.83,-68.9912 1237.55,-75.6109"/>
</g>
<!-- conv3&#45;&gt;conv3 -->
<g id="edge42" class="edge"><title>conv3&#45;&gt;conv3</title>
<path fill="none" stroke="black" d="M1072.16,-49.5873C1069.77,-59.9981 1079.52,-68.9117 1101.43,-68.9117 1115.81,-68.9117 1124.96,-65.0729 1128.87,-59.4914"/>
<polygon fill="black" stroke="black" points="1132.32,-60.0579 1130.7,-49.5873 1125.44,-58.7813 1132.32,-60.0579"/>
</g>
<!-- relu3 -->
<g id="node13" class="node"><title>relu3</title>
<ellipse fill="none" stroke="black" cx="1304.13" cy="-25.4558" rx="37.3201" ry="25.4118"/>
<text text-anchor="middle" x="1304.13" y="-28.2558" font-family="Times,serif" font-size="14.00">relu3:</text>
<text text-anchor="middle" x="1304.13" y="-14.2558" font-family="Times,serif" font-size="14.00">RELU</text>
</g>
<!-- conv3&#45;&gt;relu3 -->
<g id="edge17" class="edge"><title>conv3&#45;&gt;relu3</title>
<path fill="none" stroke="black" d="M1182.04,-18.8356C1207.65,-18.511 1235.13,-18.7954 1257.44,-19.6889"/>
<polygon fill="black" stroke="black" points="1257.47,-23.1938 1267.62,-20.1592 1257.79,-16.2013 1257.47,-23.1938"/>
</g>
<!-- fc7 -->
<g id="node8" class="node"><title>fc7</title>
<ellipse fill="none" stroke="black" cx="2085.85" cy="-250.456" rx="92.9282" ry="25.4118"/>
<text text-anchor="middle" x="2085.85" y="-253.256" font-family="Times,serif" font-size="14.00">fc7:</text>
<text text-anchor="middle" x="2085.85" y="-239.256" font-family="Times,serif" font-size="14.00">INNER_PRODUCT</text>
</g>
<!-- fc7&#45;&gt;fc7 -->
<g id="edge13" class="edge"><title>fc7&#45;&gt;fc7</title>
<path fill="none" stroke="black" d="M2045.41,-273.704C2041,-284.489 2054.48,-293.912 2085.85,-293.912 2106.43,-293.912 2119.31,-289.854 2124.49,-284.016"/>
<polygon fill="black" stroke="black" points="2128.02,-284.156 2126.28,-273.704 2121.12,-282.957 2128.02,-284.156"/>
</g>
<!-- fc8 -->
<g id="node10" class="node"><title>fc8</title>
<ellipse fill="none" stroke="black" cx="2307.27" cy="-319.456" rx="92.9282" ry="25.4118"/>
<text text-anchor="middle" x="2307.27" y="-322.256" font-family="Times,serif" font-size="14.00">fc8:</text>
<text text-anchor="middle" x="2307.27" y="-308.256" font-family="Times,serif" font-size="14.00">INNER_PRODUCT</text>
</g>
<!-- fc7&#45;&gt;fc8 -->
<g id="edge6" class="edge"><title>fc7&#45;&gt;fc8</title>
<path fill="none" stroke="black" d="M2147.68,-269.585C2175.02,-278.183 2207.46,-288.382 2235.85,-297.309"/>
<polygon fill="black" stroke="black" points="2235.12,-300.749 2245.71,-300.41 2237.22,-294.071 2235.12,-300.749"/>
</g>
<!-- drop7 -->
<g id="node11" class="node"><title>drop7</title>
<ellipse fill="none" stroke="black" cx="2307.27" cy="-250.456" rx="58.1313" ry="25.4118"/>
<text text-anchor="middle" x="2307.27" y="-253.256" font-family="Times,serif" font-size="14.00">drop7:</text>
<text text-anchor="middle" x="2307.27" y="-239.256" font-family="Times,serif" font-size="14.00">DROPOUT</text>
</g>
<!-- fc7&#45;&gt;drop7 -->
<g id="edge12" class="edge"><title>fc7&#45;&gt;drop7</title>
<path fill="none" stroke="black" d="M2175.46,-243.818C2197.24,-243.584 2220.17,-243.716 2240.64,-244.215"/>
<polygon fill="black" stroke="black" points="2240.69,-247.718 2250.79,-244.5 2240.89,-240.721 2240.69,-247.718"/>
</g>
<!-- relu7 -->
<g id="node16" class="node"><title>relu7</title>
<ellipse fill="none" stroke="black" cx="2307.27" cy="-181.456" rx="37.3201" ry="25.4118"/>
<text text-anchor="middle" x="2307.27" y="-184.256" font-family="Times,serif" font-size="14.00">relu7:</text>
<text text-anchor="middle" x="2307.27" y="-170.256" font-family="Times,serif" font-size="14.00">RELU</text>
</g>
<!-- fc7&#45;&gt;relu7 -->
<g id="edge23" class="edge"><title>fc7&#45;&gt;relu7</title>
<path fill="none" stroke="black" d="M2136.64,-229.038C2174.09,-215.884 2224.97,-199.946 2261.22,-190.049"/>
<polygon fill="black" stroke="black" points="2262.27,-193.39 2271.03,-187.425 2260.46,-186.627 2262.27,-193.39"/>
</g>
<!-- fc6&#45;&gt;fc7 -->
<g id="edge21" class="edge"><title>fc6&#45;&gt;fc7</title>
<path fill="none" stroke="black" d="M1926.25,-200.585C1953.59,-209.183 1986.03,-219.382 2014.42,-228.309"/>
<polygon fill="black" stroke="black" points="2013.69,-231.749 2024.28,-231.41 2015.79,-225.071 2013.69,-231.749"/>
</g>
<!-- fc6&#45;&gt;fc6 -->
<g id="edge29" class="edge"><title>fc6&#45;&gt;fc6</title>
<path fill="none" stroke="black" d="M1830.7,-205.587C1827.94,-215.998 1839.18,-224.912 1864.42,-224.912 1880.98,-224.912 1891.52,-221.073 1896.02,-215.491"/>
<polygon fill="black" stroke="black" points="1899.47,-216.098 1898.14,-205.587 1892.62,-214.635 1899.47,-216.098"/>
</g>
<!-- drop6 -->
<g id="node21" class="node"><title>drop6</title>
<ellipse fill="none" stroke="black" cx="2085.85" cy="-181.456" rx="58.1313" ry="25.4118"/>
<text text-anchor="middle" x="2085.85" y="-184.256" font-family="Times,serif" font-size="14.00">drop6:</text>
<text text-anchor="middle" x="2085.85" y="-170.256" font-family="Times,serif" font-size="14.00">DROPOUT</text>
</g>
<!-- fc6&#45;&gt;drop6 -->
<g id="edge38" class="edge"><title>fc6&#45;&gt;drop6</title>
<path fill="none" stroke="black" d="M1954.04,-174.818C1975.81,-174.584 1998.74,-174.716 2019.21,-175.215"/>
<polygon fill="black" stroke="black" points="2019.26,-178.718 2029.36,-175.5 2019.46,-171.721 2019.26,-178.718"/>
</g>
<!-- relu6 -->
<g id="node24" class="node"><title>relu6</title>
<ellipse fill="none" stroke="black" cx="2085.85" cy="-112.456" rx="37.3201" ry="25.4118"/>
<text text-anchor="middle" x="2085.85" y="-115.256" font-family="Times,serif" font-size="14.00">relu6:</text>
<text text-anchor="middle" x="2085.85" y="-101.256" font-family="Times,serif" font-size="14.00">RELU</text>
</g>
<!-- fc6&#45;&gt;relu6 -->
<g id="edge46" class="edge"><title>fc6&#45;&gt;relu6</title>
<path fill="none" stroke="black" d="M1915.21,-160.038C1952.66,-146.884 2003.54,-130.946 2039.79,-121.049"/>
<polygon fill="black" stroke="black" points="2040.84,-124.39 2049.6,-118.425 2039.04,-117.627 2040.84,-124.39"/>
</g>
<!-- fc8&#45;&gt;fc8 -->
<g id="edge11" class="edge"><title>fc8&#45;&gt;fc8</title>
<path fill="none" stroke="black" d="M2272.94,-343.146C2269.68,-353.745 2281.12,-362.912 2307.27,-362.912 2324.44,-362.912 2335.27,-358.964 2339.76,-353.255"/>
<polygon fill="black" stroke="black" points="2343.25,-353.612 2341.6,-343.146 2336.37,-352.356 2343.25,-353.612"/>
</g>
<!-- prob -->
<g id="node12" class="node"><title>prob</title>
<ellipse fill="none" stroke="black" cx="2494.61" cy="-319.456" rx="58.7433" ry="25.4118"/>
<text text-anchor="middle" x="2494.61" y="-322.256" font-family="Times,serif" font-size="14.00">prob:</text>
<text text-anchor="middle" x="2494.61" y="-308.256" font-family="Times,serif" font-size="14.00">SOFTMAX</text>
</g>
<!-- fc8&#45;&gt;prob -->
<g id="edge32" class="edge"><title>fc8&#45;&gt;prob</title>
<path fill="none" stroke="black" d="M2400.13,-319.456C2408.8,-319.456 2417.48,-319.456 2425.87,-319.456"/>
<polygon fill="black" stroke="black" points="2425.93,-322.956 2435.93,-319.456 2425.93,-315.956 2425.93,-322.956"/>
</g>
<!-- drop7&#45;&gt;fc7 -->
<g id="edge18" class="edge"><title>drop7&#45;&gt;fc7</title>
<path fill="none" stroke="black" d="M2250.79,-256.412C2230.98,-257.043 2208.02,-257.298 2185.68,-257.176"/>
<polygon fill="black" stroke="black" points="2185.49,-253.675 2175.46,-257.094 2185.44,-260.674 2185.49,-253.675"/>
</g>
<!-- prob&#45;&gt;prob -->
<g id="edge7" class="edge"><title>prob&#45;&gt;prob</title>
<path fill="none" stroke="black" d="M2461.4,-340.471C2455.21,-352.154 2466.27,-362.912 2494.61,-362.912 2514.09,-362.912 2525.41,-357.827 2528.57,-350.853"/>
<polygon fill="black" stroke="black" points="2532.03,-350.192 2527.82,-340.471 2525.05,-350.698 2532.03,-350.192"/>
</g>
<!-- relu3&#45;&gt;conv3 -->
<g id="edge9" class="edge"><title>relu3&#45;&gt;conv3</title>
<path fill="none" stroke="black" d="M1267.62,-30.7524C1246.58,-31.8684 1218.89,-32.3417 1192.2,-32.1724"/>
<polygon fill="black" stroke="black" points="1192.08,-28.6711 1182.04,-32.076 1192.01,-35.6708 1192.08,-28.6711"/>
</g>
<!-- relu2 -->
<g id="node14" class="node"><title>relu2</title>
<ellipse fill="none" stroke="black" cx="811.502" cy="-112.456" rx="37.3201" ry="25.4118"/>
<text text-anchor="middle" x="811.502" y="-115.256" font-family="Times,serif" font-size="14.00">relu2:</text>
<text text-anchor="middle" x="811.502" y="-101.256" font-family="Times,serif" font-size="14.00">RELU</text>
</g>
<!-- conv2 -->
<g id="node15" class="node"><title>conv2</title>
<ellipse fill="none" stroke="black" cx="637.392" cy="-112.456" rx="83.2021" ry="25.4118"/>
<text text-anchor="middle" x="637.392" y="-115.256" font-family="Times,serif" font-size="14.00">conv2:</text>
<text text-anchor="middle" x="637.392" y="-101.256" font-family="Times,serif" font-size="14.00">CONVOLUTION</text>
</g>
<!-- relu2&#45;&gt;conv2 -->
<g id="edge10" class="edge"><title>relu2&#45;&gt;conv2</title>
<path fill="none" stroke="black" d="M775.17,-118.031C761.398,-118.759 744.931,-119.148 728.272,-119.2"/>
<polygon fill="black" stroke="black" points="727.901,-115.7 717.897,-119.188 727.893,-122.7 727.901,-115.7"/>
</g>
<!-- conv2&#45;&gt;pool2 -->
<g id="edge44" class="edge"><title>conv2&#45;&gt;pool2</title>
<path fill="none" stroke="black" d="M681.378,-90.7265C706.74,-77.9066 738.825,-61.6877 764.667,-48.6248"/>
<polygon fill="black" stroke="black" points="766.536,-51.602 773.882,-43.967 763.378,-45.3548 766.536,-51.602"/>
</g>
<!-- conv2&#45;&gt;relu2 -->
<g id="edge36" class="edge"><title>conv2&#45;&gt;relu2</title>
<path fill="none" stroke="black" d="M717.897,-105.723C734.057,-105.637 750.526,-105.87 765.008,-106.422"/>
<polygon fill="black" stroke="black" points="765.022,-109.926 775.17,-106.88 765.338,-102.933 765.022,-109.926"/>
</g>
<!-- conv2&#45;&gt;conv2 -->
<g id="edge31" class="edge"><title>conv2&#45;&gt;conv2</title>
<path fill="none" stroke="black" d="M608.121,-136.587C605.725,-146.998 615.481,-155.912 637.392,-155.912 651.77,-155.912 660.915,-152.073 664.825,-146.491"/>
<polygon fill="black" stroke="black" points="668.28,-147.058 666.662,-136.587 661.397,-145.781 668.28,-147.058"/>
</g>
<!-- relu7&#45;&gt;fc7 -->
<g id="edge15" class="edge"><title>relu7&#45;&gt;fc7</title>
<path fill="none" stroke="black" d="M2276.28,-195.701C2248.49,-206.152 2205.87,-220.131 2168.09,-231.453"/>
<polygon fill="black" stroke="black" points="2166.68,-228.22 2158.09,-234.42 2168.67,-234.931 2166.68,-228.22"/>
</g>
<!-- data -->
<g id="node17" class="node"><title>data</title>
<ellipse fill="none" stroke="black" cx="27" cy="-43.4558" rx="27" ry="18"/>
<text text-anchor="middle" x="27" y="-39.2558" font-family="Times,serif" font-size="14.00">data</text>
</g>
<!-- conv1 -->
<g id="node18" class="node"><title>conv1</title>
<ellipse fill="none" stroke="black" cx="173.351" cy="-43.4558" rx="83.2021" ry="25.4118"/>
<text text-anchor="middle" x="173.351" y="-46.2558" font-family="Times,serif" font-size="14.00">conv1:</text>
<text text-anchor="middle" x="173.351" y="-32.2558" font-family="Times,serif" font-size="14.00">CONVOLUTION</text>
</g>
<!-- data&#45;&gt;conv1 -->
<g id="edge16" class="edge"><title>data&#45;&gt;conv1</title>
<path fill="none" stroke="black" d="M54.1409,-43.4558C61.7183,-43.4558 70.4576,-43.4558 79.684,-43.4558"/>
<polygon fill="black" stroke="black" points="79.855,-46.9559 89.855,-43.4558 79.8549,-39.9559 79.855,-46.9559"/>
</g>
<!-- conv1&#45;&gt;conv1 -->
<g id="edge43" class="edge"><title>conv1&#45;&gt;conv1</title>
<path fill="none" stroke="black" d="M146.303,-67.5873C144.089,-77.9981 153.105,-86.9117 173.351,-86.9117 186.637,-86.9117 195.087,-83.0729 198.701,-77.4914"/>
<polygon fill="black" stroke="black" points="202.159,-78.0348 200.398,-67.5873 195.259,-76.8523 202.159,-78.0348"/>
</g>
<!-- pool1 -->
<g id="node19" class="node"><title>pool1</title>
<ellipse fill="none" stroke="black" cx="347.461" cy="-112.456" rx="54.5197" ry="25.4118"/>
<text text-anchor="middle" x="347.461" y="-115.256" font-family="Times,serif" font-size="14.00">pool1:</text>
<text text-anchor="middle" x="347.461" y="-101.256" font-family="Times,serif" font-size="14.00">POOLING</text>
</g>
<!-- conv1&#45;&gt;pool1 -->
<g id="edge26" class="edge"><title>conv1&#45;&gt;pool1</title>
<path fill="none" stroke="black" d="M224.595,-63.599C247.081,-72.6137 273.537,-83.22 296.043,-92.2429"/>
<polygon fill="black" stroke="black" points="294.839,-95.5311 305.424,-96.0036 297.444,-89.0338 294.839,-95.5311"/>
</g>
<!-- relu1 -->
<g id="node23" class="node"><title>relu1</title>
<ellipse fill="none" stroke="black" cx="347.461" cy="-43.4558" rx="37.3201" ry="25.4118"/>
<text text-anchor="middle" x="347.461" y="-46.2558" font-family="Times,serif" font-size="14.00">relu1:</text>
<text text-anchor="middle" x="347.461" y="-32.2558" font-family="Times,serif" font-size="14.00">RELU</text>
</g>
<!-- conv1&#45;&gt;relu1 -->
<g id="edge28" class="edge"><title>conv1&#45;&gt;relu1</title>
<path fill="none" stroke="black" d="M253.857,-36.7233C270.016,-36.6372 286.486,-36.8702 300.968,-37.4221"/>
<polygon fill="black" stroke="black" points="300.981,-40.9262 311.129,-37.8804 301.297,-33.9333 300.981,-40.9262"/>
</g>
<!-- pool1&#45;&gt;pool1 -->
<g id="edge45" class="edge"><title>pool1&#45;&gt;pool1</title>
<path fill="none" stroke="black" d="M323.568,-135.704C320.962,-146.489 328.926,-155.912 347.461,-155.912 359.625,-155.912 367.236,-151.854 370.295,-146.016"/>
<polygon fill="black" stroke="black" points="373.814,-146.009 371.354,-135.704 366.85,-145.294 373.814,-146.009"/>
</g>
<!-- norm1 -->
<g id="node20" class="node"><title>norm1</title>
<ellipse fill="none" stroke="black" cx="478.131" cy="-112.456" rx="39.8204" ry="25.4118"/>
<text text-anchor="middle" x="478.131" y="-115.256" font-family="Times,serif" font-size="14.00">norm1:</text>
<text text-anchor="middle" x="478.131" y="-101.256" font-family="Times,serif" font-size="14.00">LRN</text>
</g>
<!-- pool1&#45;&gt;norm1 -->
<g id="edge20" class="edge"><title>pool1&#45;&gt;norm1</title>
<path fill="none" stroke="black" d="M402.283,-112.456C410.802,-112.456 419.573,-112.456 427.978,-112.456"/>
<polygon fill="black" stroke="black" points="428.007,-115.956 438.007,-112.456 428.007,-108.956 428.007,-115.956"/>
</g>
<!-- norm1&#45;&gt;conv2 -->
<g id="edge34" class="edge"><title>norm1&#45;&gt;conv2</title>
<path fill="none" stroke="black" d="M518.409,-112.456C526.34,-112.456 534.992,-112.456 543.889,-112.456"/>
<polygon fill="black" stroke="black" points="544.012,-115.956 554.012,-112.456 544.012,-108.956 544.012,-115.956"/>
</g>
<!-- norm1&#45;&gt;norm1 -->
<g id="edge24" class="edge"><title>norm1&#45;&gt;norm1</title>
<path fill="none" stroke="black" d="M454.922,-133.471C450.59,-145.154 458.326,-155.912 478.131,-155.912 491.746,-155.912 499.658,-150.827 501.865,-143.853"/>
<polygon fill="black" stroke="black" points="505.341,-143.282 501.339,-133.471 498.35,-143.636 505.341,-143.282"/>
</g>
<!-- drop6&#45;&gt;fc6 -->
<g id="edge22" class="edge"><title>drop6&#45;&gt;fc6</title>
<path fill="none" stroke="black" d="M2029.36,-187.412C2009.55,-188.043 1986.6,-188.298 1964.25,-188.176"/>
<polygon fill="black" stroke="black" points="1964.06,-184.675 1954.04,-188.094 1964.01,-191.674 1964.06,-184.675"/>
</g>
<!-- relu4&#45;&gt;conv4 -->
<g id="edge41" class="edge"><title>relu4&#45;&gt;conv4</title>
<path fill="none" stroke="black" d="M1470.32,-99.7524C1449.28,-100.868 1421.59,-101.342 1394.91,-101.172"/>
<polygon fill="black" stroke="black" points="1394.78,-97.6711 1384.75,-101.076 1394.71,-104.671 1394.78,-97.6711"/>
</g>
<!-- relu1&#45;&gt;conv1 -->
<g id="edge37" class="edge"><title>relu1&#45;&gt;conv1</title>
<path fill="none" stroke="black" d="M311.129,-49.0313C297.357,-49.7587 280.89,-50.1482 264.231,-50.1999"/>
<polygon fill="black" stroke="black" points="263.861,-46.6996 253.857,-50.1884 263.853,-53.6996 263.861,-46.6996"/>
</g>
<!-- relu6&#45;&gt;fc6 -->
<g id="edge39" class="edge"><title>relu6&#45;&gt;fc6</title>
<path fill="none" stroke="black" d="M2054.85,-126.701C2027.06,-137.152 1984.44,-151.131 1946.66,-162.453"/>
<polygon fill="black" stroke="black" points="1945.25,-159.22 1936.66,-165.42 1947.24,-165.931 1945.25,-159.22"/>
</g>
</g>
</svg>
